<mxfile host="app.diagrams.net" modified="2022-02-28T04:25:37.570Z" agent="5.0 (Macintosh; Intel Mac OS X 10_15_7) AppleWebKit/537.36 (KHTML, like Gecko) Chrome/98.0.4758.109 Safari/537.36" etag="jGnJyRV9G1-m3_8TGrZO" version="16.6.4" type="github">
  <diagram id="C5RBs43oDa-KdzZeNtuy" name="Page-1">
    <mxGraphModel dx="1186" dy="602" grid="1" gridSize="10" guides="1" tooltips="1" connect="1" arrows="1" fold="1" page="1" pageScale="1" pageWidth="827" pageHeight="1169" math="0" shadow="0">
      <root>
        <mxCell id="WIyWlLk6GJQsqaUBKTNV-0" />
        <mxCell id="WIyWlLk6GJQsqaUBKTNV-1" parent="WIyWlLk6GJQsqaUBKTNV-0" />
        <mxCell id="cjzvAXXsmXF2g1KCWUDf-67" style="edgeStyle=orthogonalEdgeStyle;rounded=0;orthogonalLoop=1;jettySize=auto;html=1;exitX=0.5;exitY=1;exitDx=0;exitDy=0;entryX=0.5;entryY=0;entryDx=0;entryDy=0;" edge="1" parent="WIyWlLk6GJQsqaUBKTNV-1" source="WIyWlLk6GJQsqaUBKTNV-3" target="cjzvAXXsmXF2g1KCWUDf-0">
          <mxGeometry relative="1" as="geometry" />
        </mxCell>
        <mxCell id="WIyWlLk6GJQsqaUBKTNV-3" value="Forgot Flow" style="rounded=1;whiteSpace=wrap;html=1;fontSize=12;glass=0;strokeWidth=1;shadow=0;" parent="WIyWlLk6GJQsqaUBKTNV-1" vertex="1">
          <mxGeometry x="200" y="25" width="120" height="40" as="geometry" />
        </mxCell>
        <mxCell id="cjzvAXXsmXF2g1KCWUDf-45" style="edgeStyle=orthogonalEdgeStyle;rounded=0;orthogonalLoop=1;jettySize=auto;html=1;exitX=0.5;exitY=1;exitDx=0;exitDy=0;entryX=0.5;entryY=0;entryDx=0;entryDy=0;" edge="1" parent="WIyWlLk6GJQsqaUBKTNV-1" source="WIyWlLk6GJQsqaUBKTNV-7" target="cjzvAXXsmXF2g1KCWUDf-5">
          <mxGeometry relative="1" as="geometry" />
        </mxCell>
        <mxCell id="WIyWlLk6GJQsqaUBKTNV-7" value="show a security screen to reset phone number&amp;nbsp;" style="rounded=1;whiteSpace=wrap;html=1;fontSize=12;glass=0;strokeWidth=1;shadow=0;" parent="WIyWlLk6GJQsqaUBKTNV-1" vertex="1">
          <mxGeometry x="530" y="515" width="120" height="40" as="geometry" />
        </mxCell>
        <mxCell id="cjzvAXXsmXF2g1KCWUDf-40" style="edgeStyle=orthogonalEdgeStyle;rounded=0;orthogonalLoop=1;jettySize=auto;html=1;exitX=0.5;exitY=1;exitDx=0;exitDy=0;" edge="1" parent="WIyWlLk6GJQsqaUBKTNV-1" source="cjzvAXXsmXF2g1KCWUDf-0" target="cjzvAXXsmXF2g1KCWUDf-8">
          <mxGeometry relative="1" as="geometry" />
        </mxCell>
        <mxCell id="cjzvAXXsmXF2g1KCWUDf-0" value="Forgot password" style="rounded=1;whiteSpace=wrap;html=1;fontSize=12;glass=0;strokeWidth=1;shadow=0;" vertex="1" parent="WIyWlLk6GJQsqaUBKTNV-1">
          <mxGeometry x="200" y="110" width="120" height="40" as="geometry" />
        </mxCell>
        <mxCell id="cjzvAXXsmXF2g1KCWUDf-54" style="edgeStyle=orthogonalEdgeStyle;rounded=0;orthogonalLoop=1;jettySize=auto;html=1;exitX=0.5;exitY=1;exitDx=0;exitDy=0;entryX=0.5;entryY=0;entryDx=0;entryDy=0;" edge="1" parent="WIyWlLk6GJQsqaUBKTNV-1" source="cjzvAXXsmXF2g1KCWUDf-1" target="cjzvAXXsmXF2g1KCWUDf-11">
          <mxGeometry relative="1" as="geometry" />
        </mxCell>
        <mxCell id="cjzvAXXsmXF2g1KCWUDf-1" value="Reset with new phone number" style="rounded=1;whiteSpace=wrap;html=1;fontSize=12;glass=0;strokeWidth=1;shadow=0;" vertex="1" parent="WIyWlLk6GJQsqaUBKTNV-1">
          <mxGeometry x="693" y="135" width="120" height="40" as="geometry" />
        </mxCell>
        <mxCell id="cjzvAXXsmXF2g1KCWUDf-3" style="edgeStyle=orthogonalEdgeStyle;rounded=0;orthogonalLoop=1;jettySize=auto;html=1;exitX=0;exitY=0.5;exitDx=0;exitDy=0;entryX=0.5;entryY=0;entryDx=0;entryDy=0;" edge="1" parent="WIyWlLk6GJQsqaUBKTNV-1" source="cjzvAXXsmXF2g1KCWUDf-2" target="WIyWlLk6GJQsqaUBKTNV-7">
          <mxGeometry relative="1" as="geometry" />
        </mxCell>
        <mxCell id="cjzvAXXsmXF2g1KCWUDf-4" value="Yes" style="edgeLabel;html=1;align=center;verticalAlign=middle;resizable=0;points=[];" vertex="1" connectable="0" parent="cjzvAXXsmXF2g1KCWUDf-3">
          <mxGeometry x="0.3897" y="3" relative="1" as="geometry">
            <mxPoint y="1" as="offset" />
          </mxGeometry>
        </mxCell>
        <mxCell id="cjzvAXXsmXF2g1KCWUDf-13" style="edgeStyle=orthogonalEdgeStyle;rounded=0;orthogonalLoop=1;jettySize=auto;html=1;exitX=1;exitY=0.5;exitDx=0;exitDy=0;" edge="1" parent="WIyWlLk6GJQsqaUBKTNV-1" source="cjzvAXXsmXF2g1KCWUDf-2" target="cjzvAXXsmXF2g1KCWUDf-7">
          <mxGeometry relative="1" as="geometry" />
        </mxCell>
        <mxCell id="cjzvAXXsmXF2g1KCWUDf-43" value="NO" style="edgeLabel;html=1;align=center;verticalAlign=middle;resizable=0;points=[];" vertex="1" connectable="0" parent="cjzvAXXsmXF2g1KCWUDf-13">
          <mxGeometry x="0.3563" y="2" relative="1" as="geometry">
            <mxPoint as="offset" />
          </mxGeometry>
        </mxCell>
        <mxCell id="cjzvAXXsmXF2g1KCWUDf-2" value="Is a valid user" style="rhombus;whiteSpace=wrap;html=1;shadow=0;fontFamily=Helvetica;fontSize=12;align=center;strokeWidth=1;spacing=6;spacingTop=-4;" vertex="1" parent="WIyWlLk6GJQsqaUBKTNV-1">
          <mxGeometry x="703" y="375" width="100" height="80" as="geometry" />
        </mxCell>
        <mxCell id="cjzvAXXsmXF2g1KCWUDf-46" style="edgeStyle=orthogonalEdgeStyle;rounded=0;orthogonalLoop=1;jettySize=auto;html=1;exitX=0.5;exitY=1;exitDx=0;exitDy=0;entryX=0.5;entryY=0;entryDx=0;entryDy=0;" edge="1" parent="WIyWlLk6GJQsqaUBKTNV-1" source="cjzvAXXsmXF2g1KCWUDf-5" target="cjzvAXXsmXF2g1KCWUDf-6">
          <mxGeometry relative="1" as="geometry" />
        </mxCell>
        <mxCell id="cjzvAXXsmXF2g1KCWUDf-5" value="Enter new phone number" style="rounded=1;whiteSpace=wrap;html=1;fontSize=12;glass=0;strokeWidth=1;shadow=0;" vertex="1" parent="WIyWlLk6GJQsqaUBKTNV-1">
          <mxGeometry x="530" y="605" width="120" height="40" as="geometry" />
        </mxCell>
        <mxCell id="cjzvAXXsmXF2g1KCWUDf-87" style="edgeStyle=orthogonalEdgeStyle;rounded=0;orthogonalLoop=1;jettySize=auto;html=1;exitX=0.5;exitY=1;exitDx=0;exitDy=0;entryX=1;entryY=0.5;entryDx=0;entryDy=0;" edge="1" parent="WIyWlLk6GJQsqaUBKTNV-1" source="cjzvAXXsmXF2g1KCWUDf-6" target="cjzvAXXsmXF2g1KCWUDf-57">
          <mxGeometry relative="1" as="geometry" />
        </mxCell>
        <mxCell id="cjzvAXXsmXF2g1KCWUDf-6" value="validate OTP sent to new number" style="rounded=1;whiteSpace=wrap;html=1;fontSize=12;glass=0;strokeWidth=1;shadow=0;" vertex="1" parent="WIyWlLk6GJQsqaUBKTNV-1">
          <mxGeometry x="530" y="695" width="120" height="40" as="geometry" />
        </mxCell>
        <mxCell id="cjzvAXXsmXF2g1KCWUDf-7" value="Show invalid user details screen" style="rounded=1;whiteSpace=wrap;html=1;fontSize=12;glass=0;strokeWidth=1;shadow=0;" vertex="1" parent="WIyWlLk6GJQsqaUBKTNV-1">
          <mxGeometry x="803" y="515" width="120" height="40" as="geometry" />
        </mxCell>
        <mxCell id="cjzvAXXsmXF2g1KCWUDf-72" value="" style="edgeStyle=orthogonalEdgeStyle;rounded=0;orthogonalLoop=1;jettySize=auto;html=1;entryX=0.5;entryY=0;entryDx=0;entryDy=0;" edge="1" parent="WIyWlLk6GJQsqaUBKTNV-1" source="cjzvAXXsmXF2g1KCWUDf-8" target="cjzvAXXsmXF2g1KCWUDf-88">
          <mxGeometry relative="1" as="geometry">
            <mxPoint x="260" y="275" as="targetPoint" />
          </mxGeometry>
        </mxCell>
        <mxCell id="cjzvAXXsmXF2g1KCWUDf-8" value="Validated user contact details" style="rounded=1;whiteSpace=wrap;html=1;fontSize=12;glass=0;strokeWidth=1;shadow=0;" vertex="1" parent="WIyWlLk6GJQsqaUBKTNV-1">
          <mxGeometry x="200" y="190" width="120" height="40" as="geometry" />
        </mxCell>
        <mxCell id="cjzvAXXsmXF2g1KCWUDf-65" style="edgeStyle=orthogonalEdgeStyle;rounded=0;orthogonalLoop=1;jettySize=auto;html=1;exitX=0.5;exitY=1;exitDx=0;exitDy=0;" edge="1" parent="WIyWlLk6GJQsqaUBKTNV-1" source="cjzvAXXsmXF2g1KCWUDf-10" target="cjzvAXXsmXF2g1KCWUDf-64">
          <mxGeometry relative="1" as="geometry" />
        </mxCell>
        <mxCell id="cjzvAXXsmXF2g1KCWUDf-10" value="show reset password page" style="rounded=1;whiteSpace=wrap;html=1;fontSize=12;glass=0;strokeWidth=1;shadow=0;" vertex="1" parent="WIyWlLk6GJQsqaUBKTNV-1">
          <mxGeometry x="190" y="615" width="120" height="40" as="geometry" />
        </mxCell>
        <mxCell id="cjzvAXXsmXF2g1KCWUDf-55" style="edgeStyle=orthogonalEdgeStyle;rounded=0;orthogonalLoop=1;jettySize=auto;html=1;exitX=0.5;exitY=1;exitDx=0;exitDy=0;" edge="1" parent="WIyWlLk6GJQsqaUBKTNV-1" source="cjzvAXXsmXF2g1KCWUDf-11" target="cjzvAXXsmXF2g1KCWUDf-12">
          <mxGeometry relative="1" as="geometry" />
        </mxCell>
        <mxCell id="cjzvAXXsmXF2g1KCWUDf-11" value="Verify old number details" style="rounded=1;whiteSpace=wrap;html=1;fontSize=12;glass=0;strokeWidth=1;shadow=0;" vertex="1" parent="WIyWlLk6GJQsqaUBKTNV-1">
          <mxGeometry x="693" y="215" width="120" height="40" as="geometry" />
        </mxCell>
        <mxCell id="cjzvAXXsmXF2g1KCWUDf-56" style="edgeStyle=orthogonalEdgeStyle;rounded=0;orthogonalLoop=1;jettySize=auto;html=1;exitX=0.5;exitY=1;exitDx=0;exitDy=0;entryX=0.5;entryY=0;entryDx=0;entryDy=0;" edge="1" parent="WIyWlLk6GJQsqaUBKTNV-1" source="cjzvAXXsmXF2g1KCWUDf-12" target="cjzvAXXsmXF2g1KCWUDf-2">
          <mxGeometry relative="1" as="geometry" />
        </mxCell>
        <mxCell id="cjzvAXXsmXF2g1KCWUDf-12" value="Validate OTP sent to old number" style="rounded=1;whiteSpace=wrap;html=1;fontSize=12;glass=0;strokeWidth=1;shadow=0;" vertex="1" parent="WIyWlLk6GJQsqaUBKTNV-1">
          <mxGeometry x="693" y="295" width="120" height="40" as="geometry" />
        </mxCell>
        <mxCell id="cjzvAXXsmXF2g1KCWUDf-57" value="Show login screen" style="whiteSpace=wrap;html=1;rounded=1;glass=0;strokeWidth=1;shadow=0;" vertex="1" parent="WIyWlLk6GJQsqaUBKTNV-1">
          <mxGeometry x="400" y="795" width="120" height="40" as="geometry" />
        </mxCell>
        <mxCell id="cjzvAXXsmXF2g1KCWUDf-66" style="edgeStyle=orthogonalEdgeStyle;rounded=0;orthogonalLoop=1;jettySize=auto;html=1;exitX=0.5;exitY=1;exitDx=0;exitDy=0;entryX=0;entryY=0.5;entryDx=0;entryDy=0;" edge="1" parent="WIyWlLk6GJQsqaUBKTNV-1" source="cjzvAXXsmXF2g1KCWUDf-64" target="cjzvAXXsmXF2g1KCWUDf-57">
          <mxGeometry relative="1" as="geometry" />
        </mxCell>
        <mxCell id="cjzvAXXsmXF2g1KCWUDf-64" value="Show reset successful page" style="rounded=1;whiteSpace=wrap;html=1;fontSize=12;glass=0;strokeWidth=1;shadow=0;" vertex="1" parent="WIyWlLk6GJQsqaUBKTNV-1">
          <mxGeometry x="190" y="695" width="120" height="40" as="geometry" />
        </mxCell>
        <mxCell id="cjzvAXXsmXF2g1KCWUDf-70" style="edgeStyle=orthogonalEdgeStyle;rounded=0;orthogonalLoop=1;jettySize=auto;html=1;exitX=0.5;exitY=1;exitDx=0;exitDy=0;" edge="1" parent="WIyWlLk6GJQsqaUBKTNV-1" source="cjzvAXXsmXF2g1KCWUDf-69" target="cjzvAXXsmXF2g1KCWUDf-1">
          <mxGeometry relative="1" as="geometry" />
        </mxCell>
        <mxCell id="cjzvAXXsmXF2g1KCWUDf-69" value="Reset Phone number flow" style="rounded=1;whiteSpace=wrap;html=1;fontSize=12;glass=0;strokeWidth=1;shadow=0;" vertex="1" parent="WIyWlLk6GJQsqaUBKTNV-1">
          <mxGeometry x="693" y="25" width="120" height="40" as="geometry" />
        </mxCell>
        <mxCell id="cjzvAXXsmXF2g1KCWUDf-76" value="" style="edgeStyle=orthogonalEdgeStyle;rounded=0;orthogonalLoop=1;jettySize=auto;html=1;exitX=0;exitY=0.5;exitDx=0;exitDy=0;" edge="1" parent="WIyWlLk6GJQsqaUBKTNV-1" source="cjzvAXXsmXF2g1KCWUDf-88" target="cjzvAXXsmXF2g1KCWUDf-75">
          <mxGeometry relative="1" as="geometry">
            <mxPoint x="210" y="327.5" as="sourcePoint" />
          </mxGeometry>
        </mxCell>
        <mxCell id="cjzvAXXsmXF2g1KCWUDf-79" value="" style="edgeStyle=orthogonalEdgeStyle;rounded=0;orthogonalLoop=1;jettySize=auto;html=1;entryX=0.5;entryY=0;entryDx=0;entryDy=0;exitX=1;exitY=0.5;exitDx=0;exitDy=0;" edge="1" parent="WIyWlLk6GJQsqaUBKTNV-1" source="cjzvAXXsmXF2g1KCWUDf-88" target="cjzvAXXsmXF2g1KCWUDf-80">
          <mxGeometry relative="1" as="geometry">
            <mxPoint x="310" y="327.5" as="sourcePoint" />
            <mxPoint x="380" y="370" as="targetPoint" />
          </mxGeometry>
        </mxCell>
        <mxCell id="cjzvAXXsmXF2g1KCWUDf-84" style="edgeStyle=orthogonalEdgeStyle;rounded=0;orthogonalLoop=1;jettySize=auto;html=1;exitX=0.5;exitY=1;exitDx=0;exitDy=0;entryX=0.5;entryY=0;entryDx=0;entryDy=0;" edge="1" parent="WIyWlLk6GJQsqaUBKTNV-1" source="cjzvAXXsmXF2g1KCWUDf-75" target="cjzvAXXsmXF2g1KCWUDf-10">
          <mxGeometry relative="1" as="geometry" />
        </mxCell>
        <mxCell id="cjzvAXXsmXF2g1KCWUDf-75" value="send SMS with password reset link" style="whiteSpace=wrap;html=1;rounded=1;glass=0;strokeWidth=1;shadow=0;" vertex="1" parent="WIyWlLk6GJQsqaUBKTNV-1">
          <mxGeometry x="50" y="392.5" width="120" height="45" as="geometry" />
        </mxCell>
        <mxCell id="cjzvAXXsmXF2g1KCWUDf-77" value="Phone number" style="text;html=1;align=center;verticalAlign=middle;resizable=0;points=[];autosize=1;strokeColor=none;fillColor=none;" vertex="1" parent="WIyWlLk6GJQsqaUBKTNV-1">
          <mxGeometry x="105" y="300" width="90" height="20" as="geometry" />
        </mxCell>
        <mxCell id="cjzvAXXsmXF2g1KCWUDf-86" style="edgeStyle=orthogonalEdgeStyle;rounded=0;orthogonalLoop=1;jettySize=auto;html=1;exitX=0.5;exitY=1;exitDx=0;exitDy=0;entryX=0.5;entryY=0;entryDx=0;entryDy=0;" edge="1" parent="WIyWlLk6GJQsqaUBKTNV-1" source="cjzvAXXsmXF2g1KCWUDf-80" target="cjzvAXXsmXF2g1KCWUDf-10">
          <mxGeometry relative="1" as="geometry" />
        </mxCell>
        <mxCell id="cjzvAXXsmXF2g1KCWUDf-80" value="send link via email" style="whiteSpace=wrap;html=1;rounded=1;glass=0;strokeWidth=1;shadow=0;" vertex="1" parent="WIyWlLk6GJQsqaUBKTNV-1">
          <mxGeometry x="320" y="392.5" width="120" height="45" as="geometry" />
        </mxCell>
        <mxCell id="cjzvAXXsmXF2g1KCWUDf-88" value="&lt;meta charset=&quot;utf-8&quot;&gt;&lt;span style=&quot;color: rgb(0, 0, 0); font-family: helvetica; font-size: 12px; font-style: normal; font-weight: 400; letter-spacing: normal; text-align: center; text-indent: 0px; text-transform: none; word-spacing: 0px; background-color: rgb(248, 249, 250); display: inline; float: none;&quot;&gt;check type of userid&lt;/span&gt;" style="rhombus;whiteSpace=wrap;html=1;fillColor=#FFFFFF;gradientColor=none;" vertex="1" parent="WIyWlLk6GJQsqaUBKTNV-1">
          <mxGeometry x="210" y="270" width="100" height="110" as="geometry" />
        </mxCell>
        <mxCell id="cjzvAXXsmXF2g1KCWUDf-90" value="Email id" style="text;html=1;align=center;verticalAlign=middle;resizable=0;points=[];autosize=1;strokeColor=none;fillColor=none;" vertex="1" parent="WIyWlLk6GJQsqaUBKTNV-1">
          <mxGeometry x="310" y="300" width="60" height="20" as="geometry" />
        </mxCell>
      </root>
    </mxGraphModel>
  </diagram>
</mxfile>
